<svg width="231" height="169" viewBox="0 0 231 169" fill="none" xmlns="http://www.w3.org/2000/svg">
<path fill-rule="evenodd" clip-rule="evenodd" d="M89.9231 2.74243C92.2742 2.21545 94.6412 1.76268 97.0206 1.38478L100.619 24.1673C98.7156 24.4696 96.822 24.8318 94.9411 25.2534L89.9231 2.74243ZM3.61063 86.6153C4.20975 84.2755 4.88203 81.9551 5.62648 79.6576L27.5038 86.7855C26.9082 88.6235 26.3704 90.4798 25.8911 92.3517L3.61063 86.6153ZM0.955151 100.443C1.26543 98.0474 1.65069 95.6621 2.11037 93.2908L24.6909 97.6921C24.3232 99.5892 24.015 101.497 23.7667 103.414L0.955151 100.443ZM0.277372 107.252C0.109322 109.662 0.0168199 112.076 0 114.492L23.0026 114.653C23.0161 112.721 23.0901 110.789 23.2245 108.861L0.277372 107.252ZM0.759433 128.553C0.48254 126.154 0.280903 123.746 0.154822 121.333L23.1265 120.126C23.2273 122.056 23.3886 123.982 23.6102 125.902L0.759433 128.553ZM1.74454 135.325C2.16287 137.704 2.65564 140.069 3.22212 142.417L25.5803 136.993C25.1271 135.114 24.7329 133.222 24.3982 131.319L1.74454 135.325ZM7.35136 155.876C6.50374 153.615 5.72719 151.327 5.02284 149.017L27.0209 142.273C27.5844 144.121 28.2056 145.951 28.8837 147.76L7.35136 155.876ZM9.94084 162.207C10.9207 164.414 11.9695 166.59 13.0856 168.73L33.4711 158.044C32.5782 156.331 31.7392 154.591 30.9553 152.825L9.94084 162.207ZM83.3104 4.43262C80.9947 5.09848 78.7003 5.83714 76.4308 6.64749L84.1473 28.3774C85.9629 27.7292 87.7983 27.1382 89.6509 26.6056L83.3104 4.43262ZM63.5137 12.1723C65.6678 11.0906 67.8552 10.0771 70.0728 9.13321L79.0608 30.366C77.2868 31.1211 75.5368 31.932 73.8135 32.7973L63.5137 12.1723ZM57.5052 15.4164C55.4188 16.6243 53.3709 17.8976 51.3643 19.2344L64.094 38.447C65.6993 37.3775 67.3377 36.3589 69.0067 35.3926L57.5052 15.4164ZM40.1637 27.7287C41.9929 26.1566 43.8708 24.6425 45.7948 23.1887L59.6384 41.6104C58.0993 42.7735 56.5969 43.9847 55.1336 45.2424L40.1637 27.7287ZM35.1163 32.3341C33.3834 34.0121 31.7035 35.7444 30.079 37.5283L47.0658 53.0821C48.3654 51.655 49.7093 50.2692 51.0957 48.9267L35.1163 32.3341ZM21.2605 48.4873C22.656 46.5182 24.1129 44.5935 25.629 42.7162L43.5058 57.2324C42.2929 58.7343 41.1274 60.274 40.011 61.8493L21.2605 48.4873ZM17.4741 54.1804C16.1975 56.229 14.9854 58.3174 13.8395 60.4424L34.0742 71.4133C34.9909 69.7134 35.9606 68.0427 36.9819 66.4038L17.4741 54.1804ZM7.92689 73.2151C8.80591 70.9659 9.75519 68.745 10.7733 66.5556L31.6213 76.304C30.8068 78.0555 30.0473 79.8322 29.3441 81.6315L7.92689 73.2151Z" fill="#E9F2FB"/>
<path d="M230.011 113.285C229.969 110.87 229.852 108.456 229.658 106.049L206.729 107.898C206.884 109.825 206.978 111.755 207.012 113.688L230.011 113.285Z" fill="#E9F2FB"/>
<path d="M228.909 99.2468C228.574 96.8546 228.164 94.4736 227.68 92.1072L205.146 96.7454C205.534 98.6385 205.862 100.543 206.13 102.457L228.909 99.2468Z" fill="#E9F2FB"/>
<path d="M226.11 85.4478C225.486 83.1144 224.79 80.8012 224.021 78.5117L202.22 85.8689C202.834 87.7006 203.392 89.5511 203.89 91.4178L226.11 85.4478Z" fill="#E9F2FB"/>
<path d="M221.654 72.0937C220.751 69.8539 219.779 67.6431 218.738 65.4645L197.993 75.4312C198.826 77.1741 199.604 78.9427 200.326 80.7346L221.654 72.0937Z" fill="#E9F2FB"/>
<path d="M215.608 59.3838C214.44 57.2709 213.206 55.1954 211.908 53.1603L192.529 65.5878C193.568 67.2159 194.555 68.8763 195.489 70.5666L215.608 59.3838Z" fill="#E9F2FB"/>
<path d="M208.063 47.5074C206.647 45.553 205.17 43.6437 203.634 41.7824L185.91 56.4855C187.138 57.9746 188.32 59.502 189.453 61.0655L208.063 47.5074Z" fill="#E9F2FB"/>
<path d="M199.13 36.6415C197.487 34.8748 195.789 33.1602 194.039 31.5004L178.234 48.2599C179.634 49.5878 180.992 50.9594 182.307 52.3728L199.13 36.6415Z" fill="#E9F2FB"/>
<path d="M188.944 26.9483C187.098 25.3955 185.205 23.9012 183.266 22.4677L169.615 41.0337C171.166 42.1806 172.681 43.376 174.158 44.6182L188.944 26.9483Z" fill="#E9F2FB"/>
<path d="M177.655 18.5721C175.635 17.2564 173.573 16.0047 171.475 14.8188L160.182 34.9147C161.861 35.8634 163.51 36.8647 165.127 37.9173L177.655 18.5721Z" fill="#E9F2FB"/>
<path d="M165.433 11.6379C163.267 10.579 161.069 9.58845 158.842 8.66789L150.076 29.9939C151.858 30.7304 153.616 31.5228 155.349 32.3699L165.433 11.6379Z" fill="#E9F2FB"/>
<path d="M152.458 6.24907C150.181 5.46259 147.879 4.74806 145.556 4.10656L139.447 26.3448C141.306 26.8581 143.147 27.4297 144.969 28.0589L152.458 6.24907Z" fill="#E9F2FB"/>
<path d="M138.926 2.48589C136.57 1.98363 134.198 1.55574 131.815 1.20284L128.454 24.0219C130.361 24.3042 132.258 24.6465 134.143 25.0483L138.926 2.48589Z" fill="#E9F2FB"/>
<path d="M125.037 0.404471C122.637 0.193926 120.231 0.0590429 117.823 2.05897e-05L117.261 23.0596C119.188 23.1068 121.112 23.2147 123.032 23.3832L125.037 0.404471Z" fill="#E9F2FB"/>
<path d="M110.999 0.0351052C108.591 0.119408 106.187 0.279553 103.789 0.515294L106.034 23.4717C107.952 23.2831 109.876 23.155 111.802 23.0875L110.999 0.0351052Z" fill="#E9F2FB"/>
<path d="M229.399 127.354C229.651 124.951 229.827 122.541 229.928 120.128L206.945 119.162C206.864 121.093 206.723 123.02 206.522 124.942L229.399 127.354Z" fill="#E9F2FB"/>
<path d="M227.081 141.242C227.623 138.888 228.091 136.518 228.484 134.135L205.79 130.367C205.475 132.274 205.101 134.17 204.667 136.053L227.081 141.242Z" fill="#E9F2FB"/>
<path d="M223.092 154.744C223.916 152.474 224.669 150.179 225.349 147.861L203.282 141.348C202.738 143.202 202.136 145.039 201.477 146.855L223.092 154.744Z" fill="#E9F2FB"/>
<path d="M217.493 167.658C218.587 165.505 219.612 163.319 220.569 161.102L199.458 151.941C198.693 153.715 197.872 155.464 196.997 157.186L217.493 167.658Z" fill="#E9F2FB"/>
</svg>
